<?xml version="1.0" encoding="iso-8859-1"?>
<!-- Generator: Adobe Illustrator 16.0.0, SVG Export Plug-In . SVG Version: 6.00 Build 0)  -->
<!DOCTYPE svg PUBLIC "-//W3C//DTD SVG 1.1//EN" "http://www.w3.org/Graphics/SVG/1.1/DTD/svg11.dtd">
<svg xmlns="http://www.w3.org/2000/svg" xmlns:xlink="http://www.w3.org/1999/xlink" version="1.1" id="Capa_1" x="0px" y="0px" width="512px" height="512px" viewBox="0 0 578.868 578.868" style="enable-background:new 0 0 578.868 578.868;" xml:space="preserve">
<g>
	<g>
		<path d="M248.592,29.768c-2.754-3.06-6.12-5.814-8.568-8.568c-5.814-6.12-11.628-12.546-17.748-18.36    c-1.53-1.224-3.672-1.224-5.508-0.306c-0.918-0.612-2.142-1.224-3.672-1.224c-29.682-1.836-61.506,0.918-91.188,7.038    c-2.754-3.672-10.404-3.672-12.546,2.142C77.845,87.908,42.349,160.124,0.732,232.646c-0.918,1.53-0.918,2.754-0.306,3.978v0.306    c3.06,9.486,7.038,18.666,11.016,27.846c3.672,7.65,6.732,17.748,14.076,22.644c0.306,1.53,0.918,3.06,3.06,3.672    c9.792,3.366,19.584,7.344,28.764,11.628c7.956,3.672,15.606,8.567,24.174,11.016c4.59,1.225,9.18-4.284,7.038-8.262    c7.65-9.486,15.3-18.972,22.644-28.764c3.06-3.978,6.426-8.262,9.486-12.546c-5.202,92.105-8.262,184.212-15.912,276.012    c-0.306,4.896,2.754,7.649,6.426,7.956c-0.306,3.06,2.448,5.813,4.896,7.649c5.202,4.59,11.016,8.263,16.83,12.24    c5.202,3.672,10.098,8.874,16.83,7.65c11.628,3.06,24.174,1.836,36.108,1.836c14.382,0,28.458,0.611,42.84,0.611    c2.754,0,4.59-1.224,5.508-2.754c0.306-0.306,0.306-0.611,0.612-0.918c0.612-1.224,0.612-2.448,0.612-3.672    c9.486-87.822,5.202-178.092,7.956-266.22c3.06-89.352,9.792-178.704,12.546-268.362C255.937,31.91,252.265,29.768,248.592,29.768    z M230.539,28.85c3.366,4.284,6.426,9.486,10.404,13.464c0,1.53-0.306,3.06-0.306,4.284c-5.508-6.426-11.934-12.24-18.972-17.136    c0-3.978,0.306-7.65,0.306-11.628C224.725,21.812,227.785,25.484,230.539,28.85z M32.25,282.83    c-0.612-7.956-6.732-15.3-10.404-22.338c-2.448-4.284-4.59-8.874-6.732-13.158c5.202,3.06,10.404,6.426,15.912,9.486    c-1.224,0.612-2.142,1.836-1.53,3.366c3.06,7.65,6.426,16.83,11.322,24.48C37.758,284.36,35.004,283.442,32.25,282.83z     M53.059,288.338c-2.754-5.202-6.732-9.486-9.792-14.382c-2.754-4.59-5.508-9.18-7.65-14.076c4.59,2.448,9.18,5.202,13.77,7.344    c0,0.306,0,0.306,0.306,0.612c3.06,6.426,6.12,12.852,9.486,18.972c0.612,1.224,1.224,2.448,1.836,3.671    C57.955,289.868,55.506,288.95,53.059,288.338z M79.986,299.048c-2.448-1.53-5.202-2.754-7.956-3.979    c-1.53-4.284-4.284-7.956-6.732-11.627c-2.448-4.284-4.896-8.262-7.344-12.24c2.754,1.224,5.508,2.142,8.262,3.06    c1.224,0.306,2.448,0.306,3.366,0c1.53,8.568,5.508,18.053,11.016,24.479C80.292,298.741,80.292,298.741,79.986,299.048z     M85.188,290.785c-1.836-2.447-3.672-5.201-4.896-7.955c-2.142-4.284-3.672-9.18-5.202-13.77c1.224-1.53,2.448-3.06,3.672-4.284    c1.53,7.956,4.59,15.912,10.098,20.808C87.637,287.114,86.413,288.95,85.188,290.785z M93.145,279.158    c-1.836-3.06-3.978-6.12-5.508-9.486c-1.836-3.366-3.06-7.344-3.978-11.016c2.142-2.448,3.672-5.202,5.814-7.956    c1.836,7.344,3.978,15.606,8.262,21.726C96.205,274.568,94.674,276.71,93.145,279.158z M103.243,264.164    c-0.918-1.836-1.836-3.366-2.754-5.202c-2.448-4.896-4.284-9.792-6.12-14.994c2.754-3.978,5.202-7.65,7.65-11.628    c0.612,2.142,1.53,3.978,2.142,6.12c1.836,5.202,3.366,10.71,6.426,15.606C107.833,257.432,105.385,260.798,103.243,264.164z     M115.482,247.028c-1.53-3.672-3.978-7.344-5.814-11.016c-1.53-3.06-3.366-5.814-4.896-8.874    c2.448-4.284,4.896-8.568,7.038-13.158c1.53,9.18,3.978,18.972,8.568,27.234C118.849,243.356,117.013,245.192,115.482,247.028z     M114.564,209.39c3.672-7.344,7.344-14.688,10.404-22.032c-0.918,14.076-1.836,28.152-2.448,41.922    c-2.754-6.12-5.202-11.934-6.732-18.666C115.176,210.002,114.871,209.696,114.564,209.39z M134.455,155.84    c-0.306-4.896-7.038-4.896-7.344,0l0,0c-1.836,0.306-3.366,0.918-4.284,3.06c-15.3,35.496-34.578,68.85-53.244,102.51    c-16.83-12.24-39.474-19.584-58.446-27.846C58.261,170.222,95.898,96.782,120.378,21.2c30.294-2.142,60.894-3.978,91.188-7.038    c-12.852,81.09-13.77,164.628-18.36,246.636c-5.202,88.739-13.77,179.315-8.874,268.361c-21.114,0.918-41.922,3.979-62.424,9.181    C135.373,412.573,144.858,282.218,134.455,155.84z M215.239,470.407c2.448,3.061,5.202,6.12,7.65,9.181    c0,7.649,0,15.3,0.306,22.644c-1.836-2.142-3.978-3.978-5.814-6.12c-5.202-5.202-10.404-10.403-15.606-15.605    c0.306-8.263,0.612-16.524,0.918-24.786C206.67,460.615,210.955,465.512,215.239,470.407z M202.999,449.294    c0.306-11.629,0.612-23.562,0.918-35.19c3.06,3.978,6.12,7.956,9.18,11.628c3.366,3.672,6.732,7.956,10.404,11.322    c-0.306,9.792-0.612,19.584-0.612,29.376c-0.612-0.612-1.224-1.225-1.836-1.836c-4.896-4.896-9.792-9.792-14.688-14.382    C205.141,448.682,203.917,448.682,202.999,449.294z M212.791,500.701c3.366,4.284,6.732,8.568,10.71,12.24    c0.306,7.038,0.306,14.382,0.918,21.42c-7.038-9.18-15.912-18.054-24.174-25.704c0.612-7.344,0.918-14.382,1.224-21.726    C205.141,491.521,208.812,496.111,212.791,500.701z M223.807,427.262c-2.142-1.836-4.284-3.979-6.426-5.814    c-4.896-4.896-9.18-10.098-13.464-15.3l0,0c0.306-14.076,0.612-28.152,0.612-41.922c0,0.306,0,0.612,0,0.612l12.24,19.277    c2.448,3.979,4.896,8.263,7.65,12.24C224.418,406.453,224.112,416.857,223.807,427.262z M153.732,568.021    c-2.448-6.731-11.934-9.792-17.748-12.852c-3.672-2.143-7.344-4.284-11.322-6.12c-0.306-0.307-0.612-0.307-1.224-0.612    c5.814,0,11.628-0.306,17.442-0.612c0.306,0.307,0.612,0.612,0.612,0.612c4.284,5.202,9.792,9.792,14.688,14.382    c1.224,0.918,2.142,2.143,3.366,3.366C158.017,566.798,155.875,567.409,153.732,568.021z M172.705,564.044    c-3.366-3.366-7.65-6.427-11.016-9.181c-2.754-2.142-5.508-4.59-8.262-7.038c4.896-0.306,9.792-0.611,14.382-0.918    c4.896,3.366,9.486,6.732,13.464,11.017c1.53,1.529,3.366,3.366,4.896,5.202C181.579,563.126,176.989,563.432,172.705,564.044z     M196.878,562.819c-3.978-6.731-10.404-12.24-17.442-16.83c3.978-0.306,7.956-0.306,11.628-0.611c1.836,0,3.06-0.612,4.284-1.53    c4.59,4.896,8.874,9.792,13.77,14.382c1.53,1.836,3.366,3.366,4.896,5.202C208.506,563.126,202.692,562.819,196.878,562.819z     M215.239,552.109c-5.508-4.896-10.71-9.792-16.218-14.382c0.306-1.836,0-3.672-0.918-5.202c0-0.306,0.306-0.612,0.306-1.224    c0.306-4.896,0.612-10.099,1.224-14.994c3.978,4.284,7.65,8.568,11.322,13.158c4.896,6.12,9.18,12.852,14.382,18.666    c0.306,4.59,0.612,9.485,0.918,14.076C222.889,558.535,218.911,555.476,215.239,552.109z M225.336,385.951    c-1.53-1.836-2.754-3.365-4.284-5.202c-4.59-5.813-9.18-11.934-13.77-17.747c-0.612-0.919-2.142-0.307-2.448,0.611    c0.306-11.628,0.306-22.95,0.612-34.578c3.366,4.896,6.426,9.486,9.792,14.382c3.366,5.202,6.732,10.711,11.322,15.301    C225.949,367.897,225.643,376.771,225.336,385.951z M226.867,346.783c-1.836-2.754-3.978-5.202-6.12-7.649    c-4.284-5.508-8.568-11.017-12.852-16.524c-0.612-0.918-1.53-0.918-2.448-0.918c0.306-7.038,0.306-14.076,0.612-21.42    c2.754,3.978,5.508,7.956,8.262,11.934c3.672,5.509,7.344,11.322,11.934,15.912c0.306,0.307,0.612,0.612,0.918,0.612    C227.172,334.85,227.172,340.663,226.867,346.783z M228.396,304.861c0,4.59-0.306,9.486-0.612,14.076    c-2.754-3.978-5.814-7.65-8.568-11.322c-4.284-5.508-8.262-11.016-12.546-16.523c0-0.307-0.306-0.307-0.306-0.307    c0.306-7.037,0.306-14.381,0.612-21.419c0-1.224,0-2.754,0.306-3.978c2.142,3.672,4.284,7.038,6.732,10.71    c3.672,5.202,7.65,11.322,12.852,15.299c0.612,0.306,1.224,0.612,1.836,0.612C228.703,296.294,228.396,300.577,228.396,304.861z     M229.008,284.054c-3.06-3.978-7.038-7.344-10.098-11.322c-3.978-4.896-7.65-10.404-11.016-15.912    c0.612-10.404,1.224-20.808,1.836-31.518c4.284,10.71,10.71,23.256,20.196,30.294    C229.621,265.082,229.314,274.568,229.008,284.054z M230.232,242.438c-1.53-1.836-3.366-3.672-4.896-5.814    c-3.978-5.202-7.65-10.71-11.016-16.524c-0.918-1.53-3.06-1.836-4.284-0.918c0.612-9.18,1.224-18.36,1.836-27.54    c2.142,3.366,4.284,6.732,6.426,10.404c3.366,5.508,6.426,12.24,11.016,16.83c0.612,0.306,0.918,0.612,1.53,0.918    C230.845,227.444,230.539,235.094,230.232,242.438z M231.457,208.778c-2.448-3.366-5.202-6.426-7.65-9.792    c-3.672-4.896-7.344-10.098-11.322-14.994c0.306-5.202,0.918-10.71,1.224-15.912c3.978,4.59,7.65,9.486,11.628,14.076    c2.142,2.754,4.284,5.508,6.732,8.262C232.068,196.232,231.763,202.352,231.457,208.778z M232.681,178.79    c-0.612-0.612-1.224-1.224-2.142-1.836c-5.202-5.202-10.71-10.404-15.912-15.606l0,0c0.612-6.12,0.918-12.24,1.224-18.054    c2.448,3.06,5.202,6.426,7.65,9.486c3.06,3.672,5.814,7.65,9.792,10.098C232.986,167.774,232.681,173.282,232.681,178.79z     M233.599,154.004c-1.836-2.142-3.978-3.978-5.814-5.814c-3.672-3.672-7.344-7.344-11.016-11.016c0,0-0.306,0-0.306-0.306    c0.306-4.896,0.612-9.792,0.918-14.994c4.896,6.426,10.404,12.24,17.136,15.606C234.21,142.988,233.904,148.496,233.599,154.004z     M235.128,126.77c-3.06-2.448-6.426-4.896-9.18-7.956c-2.754-2.754-5.202-5.814-7.65-8.874c0.306-5.508,0.612-11.016,0.918-16.524    c2.448,3.366,5.202,7.038,7.65,10.404c2.754,3.672,5.202,7.956,9.18,10.098C235.741,118.508,235.435,122.792,235.128,126.77z     M236.659,100.148c-0.918-0.918-1.836-1.836-2.754-2.754c-4.59-4.896-9.18-9.792-13.77-14.688l-0.306-0.306    c0.306-4.59,0.306-9.18,0.612-13.77c4.896,6.12,10.404,11.628,17.442,14.994C237.577,89.132,236.964,94.64,236.659,100.148z     M221.053,54.86c0.306-4.896,0.306-10.098,0.306-14.994c6.12,6.426,11.934,13.464,18.054,19.89    c-0.306,3.978-0.612,7.956-0.918,11.934C233.292,65.876,226.561,60.674,221.053,54.86z" fill="#D80027"/>
		<path d="M575.4,544.766c7.649-80.172,0.611-163.71-1.836-244.188c-0.307-14.075-0.612-28.151-0.919-41.921    c1.225-0.918,1.53-2.754,0.612-4.284c-0.306-0.306-0.612-0.918-0.918-1.224c-1.224-63.954-1.836-127.908-5.508-191.556    c2.448-1.224,4.284-3.978,3.366-6.732c-2.143-6.426-9.486-9.18-14.688-13.158c-4.59-3.672-8.874-7.956-13.158-11.934    c0.612-2.142-0.306-4.59-3.06-5.202c-8.874-1.836-17.748-2.142-26.928-2.754c-9.792-0.612-19.891-2.754-29.683-2.448    c-7.038,0.306-9.485,7.344-6.426,12.24c-6.12,30.6-3.672,62.73-4.284,93.942c-0.611,34.578-3.06,69.156-2.754,103.428    c-20.808-2.448-41.616-2.754-62.729-2.448c0,0,0-0.306,0.306-0.306c0.612-1.836,1.224-3.672,1.836-5.508    c0.918-0.918,1.53-2.448,1.225-3.672c15.3-48.654,25.397-106.182,28.764-156.672c1.224-1.53,1.836-3.366,1.224-5.202    c-1.836-7.038-10.71-11.628-15.912-15.912c-5.202-3.978-10.098-8.262-14.994-12.852c-0.306-5.508-5.813-7.038-10.403-5.202    c-0.307-0.306-0.612-0.612-0.918-0.918c-8.263-4.59-18.36-3.06-27.54-3.06c-7.956,0-19.891-1.224-26.929,2.448    c-1.529,0.918-2.754,2.448-3.365,3.978c-1.225,0.612-2.143,1.53-2.754,3.06c-21.114,89.658-33.049,181.152-54.774,270.81    c-1.224,5.508,3.06,9.18,7.65,9.486c4.283,6.119,9.485,11.934,15.3,17.136c7.344,6.731,14.994,16.523,25.397,17.441    c0.307,0,0.612,0,0.612,0c8.262,8.568,22.032,7.038,35.19,7.345c34.884,0.918,70.073,1.836,104.958,1.529    c-4.896,57.834,2.142,119.341-2.754,175.339c-0.307,3.365,1.529,5.201,3.978,6.426c0.306,2.754,1.836,5.813,4.284,7.956    c4.59,4.284,10.098,8.262,15.3,12.239c4.896,3.979,9.486,9.181,15.912,9.181c0.612,0,0.918-0.307,1.224-0.307    c8.874,2.755,18.666,0.918,27.847,0.307c11.934-0.918,24.479-1.53,36.107-3.979c5.814-1.224,6.12-8.567,2.448-11.934    C575.4,545.071,575.4,545.071,575.4,544.766z M560.406,432.464c-0.612-0.612-1.225-1.225-1.836-1.836    c-3.979-4.284-7.65-8.874-10.71-13.771c0-8.262,0-16.83-0.307-25.092c0.612,0.918,1.53,1.836,2.143,2.448    c3.365,3.978,6.426,7.956,10.098,11.628C560.1,414.716,560.1,423.59,560.406,432.464z M559.488,358.105    c-3.366-4.59-6.427-9.486-9.486-14.076c-0.918-1.53-2.142-1.836-3.672-1.836c-0.306-10.404-0.612-20.808-0.612-31.212    c1.225,2.143,2.754,4.284,3.979,6.12c2.754,3.672,5.508,8.874,9.485,11.628C559.488,338.827,559.488,348.619,559.488,358.105z     M554.286,366.367c1.836,2.754,3.366,5.509,5.202,8.263c0,6.731,0,13.77,0,20.502c-1.836-1.836-3.672-3.672-5.508-5.509    c-2.143-2.142-4.591-4.59-6.732-6.731c0-9.792-0.306-19.584-0.612-29.376C549.39,357.8,551.838,362.083,554.286,366.367z     M547.554,427.567c3.672,6.12,7.956,12.24,13.158,16.524c0.307,6.731,0.307,13.77,0.612,20.502    c-0.307-0.307-0.918-0.612-1.225-0.918c-4.283-3.979-8.567-7.956-12.852-11.935C547.248,443.479,547.554,435.523,547.554,427.567z     M552.144,99.842c-2.142-2.142-4.283-4.59-6.731-6.732c-0.612-0.612-1.224-0.612-1.53-0.918c0-4.896-0.306-9.792-0.306-14.688    c1.53,1.836,2.754,3.672,4.284,5.814c1.529,1.836,2.754,3.672,4.283,5.508C552.144,92.498,552.144,96.17,552.144,99.842z     M547.86,110.552c1.529,1.836,3.06,3.978,4.59,5.814c0.306,8.568,0.611,17.442,0.918,26.01c-2.448-3.06-4.896-6.12-6.732-9.792    c-0.611-0.918-1.529-1.53-2.447-1.53c0-8.568-0.307-17.136-0.307-25.704C545.412,107.186,546.636,109.022,547.86,110.552z     M553.98,156.146c0.306,8.262,0.611,16.83,0.918,25.092c-0.918-1.53-1.837-3.366-2.755-4.896c-1.836-3.978-8.262-1.224-7.037,3.06    c2.142,6.12,4.896,11.934,8.567,17.136c0.612,0.612,1.225,1.53,1.53,2.142c0.612,12.546,0.918,25.092,1.53,37.638    c-2.448-3.06-4.896-5.814-7.038-9.18c-1.225-1.836-3.672-1.53-4.896-0.612c-0.306-27.846-0.306-55.386-0.611-83.232    C546.636,148.19,550.002,152.474,553.98,156.146z M555.816,246.11c0.611,0.612,1.224,1.53,1.529,2.142    c0.307,7.344,0.612,14.688,0.918,22.032c-3.978-4.59-7.038-9.486-10.098-14.688c-0.918-1.224-1.836-1.836-3.06-1.836    c0-7.65,0-14.994,0-22.644C548.472,236.012,551.838,241.214,555.816,246.11z M551.226,277.016c2.143,3.06,4.591,6.12,7.345,8.874    c0,4.895,0.306,10.097,0.306,14.994c0,4.896,0,10.098,0,14.994c-0.918-0.918-2.142-2.143-3.06-3.061    c-3.673-4.284-7.038-8.568-10.71-12.852c-0.307-8.263-0.307-16.218-0.307-24.48c0-2.754,0-5.202,0-7.956    C546.942,270.59,549.084,273.956,551.226,277.016z M546.636,459.697c2.754,3.061,5.202,6.12,7.956,9.181    c2.143,2.447,4.59,5.508,7.038,8.262c0.307,7.649,0.918,15.3,1.53,22.95c-2.754-1.836-5.814-3.979-8.262-6.12    c-3.366-2.754-6.427-6.12-9.486-9.486C546.024,476.222,546.33,467.96,546.636,459.697z M547.248,49.658    c1.224,1.53,2.754,3.06,4.59,4.896c-0.306,0.612-0.306,1.224-0.306,2.142c0,6.12,0.306,12.24,0.306,18.36l-8.567-9.486    c0-7.038-0.307-14.076-0.307-21.114C544.188,46.292,545.718,48.128,547.248,49.658z M407.406,39.254    c2.142,3.06,4.59,6.12,7.038,9.18c3.672,4.284,8.874,10.404,14.688,12.852c-1.224,3.672-2.448,7.344-3.366,11.016    c-2.142-1.53-3.978-2.754-5.813-4.284c-4.896-3.978-9.792-8.262-14.688-12.546C406.182,49.964,406.794,44.456,407.406,39.254z     M404.04,65.264c3.366,3.366,6.426,7.038,10.098,10.098c2.448,2.448,5.202,5.202,8.263,7.65    c-2.143,7.038-3.979,14.076-5.814,21.42c-2.448-1.836-5.202-3.366-7.344-4.896c-3.061-1.836-6.12-3.978-9.18-5.814    C401.286,84.236,402.816,74.75,404.04,65.264z M398.532,101.678c1.836,1.53,3.672,3.06,5.202,4.59    c3.06,2.754,6.426,5.814,10.098,7.956c-1.53,6.426-3.06,12.852-4.284,19.584c-1.53-0.918-3.366-1.836-4.896-2.754    c-3.061-1.836-6.427-3.978-10.099-3.978c-0.306,0-0.306,0-0.306,0C395.778,118.508,397.308,110.246,398.532,101.678z     M400.674,137.786c2.448,1.836,4.59,3.672,7.038,4.896c-1.224,5.814-2.142,11.628-3.366,17.442    c-1.836-0.918-3.366-1.836-5.202-3.06c-3.672-2.448-6.731-5.508-9.485-8.568c1.224-5.814,2.448-11.628,3.672-17.136    C395.166,133.808,398.226,135.95,400.674,137.786z M396.39,226.526c-9.792,0.306-19.277,0.612-29.069,0.918    c3.06-8.874,6.12-17.748,8.874-26.622c3.672,3.06,7.649,6.426,11.321,9.486c3.061,2.448,5.814,5.202,9.181,7.344    c-0.307,2.142-0.307,4.59-0.612,6.732C396.084,225.302,396.39,225.914,396.39,226.526z M393.024,203.27    c-4.896-3.06-10.099-6.12-14.994-9.18c1.529-5.202,3.06-10.098,4.284-15.3c3.365,2.754,7.037,5.508,10.403,8.262    c2.143,1.53,4.284,3.366,6.426,4.896c-0.611,4.59-1.224,9.486-1.529,14.076C396.39,205.412,394.554,204.188,393.024,203.27z     M397.308,181.85c-4.283-2.754-8.567-5.202-12.852-7.956c-0.306,0-0.306,0-0.612-0.306c1.53-6.12,3.061-11.934,4.284-18.054    c2.143,2.448,4.284,5.202,6.732,7.344c2.447,2.142,5.201,4.284,7.956,5.508c-0.918,5.202-1.53,10.404-2.143,15.606    C399.45,183.38,398.532,182.462,397.308,181.85z M336.108,332.096c-3.061-8.874-13.771-14.994-20.809-20.809    c-0.918-0.611-1.529-1.224-2.448-1.836c6.732,0.612,13.465,1.225,20.503,1.836c4.896,6.12,9.791,11.935,15.605,17.137    c1.53,1.224,3.366,3.06,5.202,4.896C347.736,333.626,341.004,333.932,336.108,332.096z M369.156,332.401    c-3.672-4.284-9.792-7.038-14.076-10.098c-3.979-3.366-7.956-6.732-11.628-10.404c7.956,0.612,16.218,0.918,24.174,1.224    c4.284,5.509,8.874,10.404,13.771,15.301c1.224,1.224,2.754,2.754,3.978,3.978C380.172,332.401,374.664,332.401,369.156,332.401z     M400.062,332.708c-4.283-3.673-9.485-7.038-13.77-10.711c-3.06-2.754-6.12-5.813-9.18-8.567    c7.038,0.306,14.076,0.306,21.113,0.306c4.284,6.426,8.874,12.546,14.076,18.36c0.307,0.306,0.612,0.611,0.918,1.224    C408.937,333.014,404.346,332.708,400.062,332.708z M427.602,333.319c-2.754-2.448-5.813-4.284-8.262-6.731    c-4.284-3.979-8.262-8.263-11.934-12.853c6.12,0,12.546-0.306,18.666-0.611c4.284,6.119,9.18,12.239,14.382,17.747    c0.918,0.919,1.836,2.143,3.06,3.061C438.006,333.319,432.804,333.319,427.602,333.319z M472.584,334.544    c-0.306,0-0.612-0.307-0.918-0.307c-3.672,0-7.344-0.306-11.322-0.306c-4.59-3.979-10.098-7.038-14.382-11.017    c-3.672-3.365-7.344-7.037-10.71-11.016c4.896-0.306,9.792-0.918,14.688-1.53c5.201,7.65,10.403,15.606,17.441,21.727    c1.836,1.53,4.284,0.918,5.508-0.612C472.89,332.708,472.89,333.626,472.584,334.544z M473.502,329.035    c0-0.306,0-0.611-0.306-0.918c-3.672-6.731-8.874-12.852-14.076-18.666c6.12-0.918,12.546-1.836,18.359-3.06    C475.644,314.042,474.42,321.691,473.502,329.035z M298.776,293.233c20.502-85.067,42.228-173.195,47.43-260.711    c0.918,0.306,1.836,0.306,2.142,0.612c5.814,0.918,11.628,0.918,17.442,0.918c8.568,0,18.36,1.224,26.622-1.224    c-8.568,66.096-24.174,130.356-36.108,195.534c-7.956,2.754-7.038,15.912,2.448,15.912c37.638,0,76.806,1.53,114.138-4.59    c4.284,2.142,10.404,0,11.322-6.12c7.65-59.976,14.994-137.088,1.53-197.064c12.546,3.366,27.846,3.672,41.004,0.612    c-0.612,82.314,1.836,164.628,2.754,246.942c0.918,76.805-3.06,154.529,7.956,230.723c-1.224-0.918-2.448-1.836-4.284-1.836    c-16.523-1.224-33.354,0.306-48.96,5.508c15.912-68.237,8.262-150.552,5.202-219.096c0-1.224-0.612-2.142-1.224-2.754    c-1.225-2.754-4.284-4.896-7.956-4.284C420.564,300.884,359.364,290.479,298.776,293.233z M511.446,550.579    c-3.672-5.508-11.322-9.18-16.219-12.852c-3.365-2.448-7.037-4.896-10.403-7.344c-0.307-0.307-0.307-0.307-0.612-0.612    c7.956-0.918,15.606-1.836,23.562-2.448c0.918,0.612,1.836,1.225,2.754,1.836c3.978,2.754,7.649,6.12,11.321,9.181    c3.061,2.448,6.427,5.813,10.099,8.262C525.216,547.825,517.872,548.132,511.446,550.579z M546.636,545.071    c-2.754-3.978-7.038-6.426-11.016-9.485c-4.284-3.061-8.874-6.12-13.158-9.181c3.672,0,7.344,0,11.322,0    c3.06,0,4.896-1.529,6.12-3.366c4.59,4.284,9.485,8.263,14.382,12.24c3.06,2.448,6.12,5.814,9.486,8.262    C557.958,544.153,552.144,544.46,546.636,545.071z M559.794,528.241c-5.813-4.283-11.322-8.567-17.442-12.546    c0.919-7.344,1.53-14.994,2.143-22.338c1.836,2.142,3.672,4.59,5.813,6.732c3.979,4.283,8.568,9.18,13.771,12.239    c0.612,6.732,1.224,13.465,1.836,20.196C563.772,530.995,561.63,529.466,559.794,528.241z" fill="#D80027"/>
	</g>
</g>
<g>
</g>
<g>
</g>
<g>
</g>
<g>
</g>
<g>
</g>
<g>
</g>
<g>
</g>
<g>
</g>
<g>
</g>
<g>
</g>
<g>
</g>
<g>
</g>
<g>
</g>
<g>
</g>
<g>
</g>
</svg>
