<?xml version="1.0" encoding="iso-8859-1"?>
<!DOCTYPE svg PUBLIC "-//W3C//DTD SVG 1.1//EN" "http://www.w3.org/Graphics/SVG/1.1/DTD/svg11.dtd">
<svg xmlns="http://www.w3.org/2000/svg" xmlns:xlink="http://www.w3.org/1999/xlink" version="1.1" viewBox="0 0 460 460" enable-background="new 0 0 460 460" width="512px" height="512px">
  <g>
    <path d="m184.34,340.217c12.836-0.362 24.463,10.426 24.463,23.267v41.072c0,4.152 3.366,7.517 7.517,7.517h102.68c2.825,0 5.412-1.584 6.696-4.101 0.504-0.988 49.404-97.322 70.866-180.054 6.245-2.357 12.064-5.113 17.324-8.273 23.451-14.089 35.846-35.362 35.846-61.52 0-11.266-1.226-25.153-5.48-39.341 10.228-4.758 15.748-12.326 15.748-22.267 0-30.879-10.225-48.589-28.053-48.589-10.641,0-24.267,4.637-34.383,12.635-16.099-8.396-35.496-12.635-58.028-12.635-22.02,0-41.481,4.406-57.693,12.915-10.149-8.166-23.956-12.915-34.718-12.915-17.46,0-27.621,16.995-28.033,46.703-22.806,3.974-65.839,11.941-127.581,25.344-40.922,8.883-70.858,19.383-83.945,41.75-13.463,23.012-7.503,55.817 6.479,101.288 26.847,87.314 64.833,143.438 66.437,145.784 1.401,2.05 3.723,3.275 6.206,3.275h66.999c4.152,0 7.517-3.366 7.517-7.517v-41.072c-0.001-12.395 10.896-22.921 23.136-23.266zm177.641-119.194c-7.196,0.956-14.71,1.46-22.446,1.46-7.736,0-15.25-0.503-22.446-1.46-5.415-7.487-8.48-17.396-8.48-27.728 0-12.426 4.081-30.767 10.154-45.637 6.447-15.787 14.407-25.594 20.772-25.594s14.325,9.807 20.773,25.594c6.073,14.871 10.154,33.211 10.154,45.637 5.68434e-14,10.333-3.065,20.242-8.481,27.728zm-28.171-157.943v49.974c-21.727,7.751-35.223,58.015-35.223,80.242 0,8.998 1.978,17.779 5.588,25.433-11.837-2.665-22.464-6.694-31.246-11.97-18.948-11.384-28.555-27.746-28.555-48.633-0.001-21.832 6.576-91.954 89.436-95.046zm-86.686-.118c6.657,0 14.54,2.649 20.997,6.659-5.038,3.889-9.643,8.282-13.776,13.173-5.508,6.518-10.148,13.949-13.9,22.061-3.748-1.904-6.34-4.574-6.34-8.338 2.84217e-14-5.603 0.628-33.555 13.019-33.555zm-100.955,300.521v33.555h-14.529l-1.422-7.108c-2.84-14.199-0.989-25.474 5.502-33.513 3.502-4.337 8.421-7.802 14.683-10.408-2.7,5.244-4.234,11.182-4.234,17.474zm39.347-38.32c-27.629,0.737-50.422,8.099-61.494,21.81-9.295,11.511-12.251,27.386-8.547,45.906l.832,4.159h-25.55c-8.403-13.176-39.782-65.068-62.343-138.443-15.094-49.09-17.228-73.287-7.872-89.278 8.831-15.094 30.316-25.133 74.157-34.651 62.67-13.604 105.914-21.573 128.173-25.435 2.7,3.955 6.794,7.208 12.198,9.677-3.748,12.132-5.731,25.365-5.731,39.216 0,26.158 12.395,47.431 35.846,61.52 19.184,11.525 45.588,17.872 74.35,17.872 14.119,0 27.664-1.538 40.072-4.459-19.364,69.279-56.192,145.66-65.254,163.98h-36.664l19.861-67.954c1.165-3.985-1.122-8.159-5.106-9.324-3.986-1.166-8.159,1.121-9.324,5.106l-21.093,72.172h-38.188v-33.555c-0.001-21.129-17.192-38.319-38.323-38.319zm220.627-118.405c-8.782,5.276-19.409,9.305-31.246,11.97 3.61-7.653 5.588-16.434 5.588-25.433 0-22.709-14.09-74.68-36.652-80.679v-49.593c81.9,2.188 90.865,66.974 90.865,95.102-5.68434e-14,20.887-9.607,37.249-28.555,48.633zm32.823-102.076c-3.445-7.536-7.917-14.94-13.702-21.858-4.197-5.019-8.841-9.5-13.92-13.443 6.382-3.874 14.081-6.419 20.603-6.419 12.391,0 13.019,27.952 13.019,33.555 0,3.65-2.433,6.273-6,8.165z"/>
    <path d="m288.2,175.907c1.975,0 3.909-0.802 5.312-2.195 1.404-1.403 2.205-3.338 2.205-5.322 0-1.974-0.802-3.909-2.205-5.312-1.403-1.403-3.337-2.205-5.312-2.205-1.984,0-3.919,0.802-5.322,2.205-1.393,1.393-2.195,3.338-2.195,5.312 0,1.984 0.802,3.919 2.195,5.322 1.403,1.394 3.338,2.195 5.322,2.195z"/>
    <path d="m390.873,160.873c-1.974,0-3.919,0.802-5.312,2.205-1.403,1.393-2.205,3.338-2.205,5.312 0,1.984 0.802,3.919 2.205,5.312 1.403,1.403 3.338,2.205 5.312,2.205 1.984,0 3.919-0.802 5.322-2.205 1.393-1.393 2.195-3.328 2.195-5.312 0-1.974-0.802-3.919-2.195-5.312-1.403-1.403-3.337-2.205-5.322-2.205z"/>
    <path d="m339.535,164.383c-11.944,0-20.951,5.365-20.951,12.48 0,6.077 6.58,10.865 15.939,12.136v15.453h-5.257c-2.768,0-5.011,2.244-5.011,5.011 0,2.768 2.244,5.011 5.011,5.011h20.536c2.767,0 5.011-2.244 5.011-5.011 0-2.768-2.244-5.011-5.011-5.011h-5.257v-15.453c9.359-1.271 15.94-6.059 15.94-12.136 0.002-7.114-9.005-12.48-20.95-12.48z"/>
  </g>
</svg>
